# xmcd
#
# Track frame offsets: 
#        150
#        13162
#        26502
#        39710
#        53320
#        67330
#        81700
#        95365
#        110205
#        125242
#        140427
#        154957
#        168160
#        182635
#        197177
#        211605
#
# Disc length: 3006 seconds
#
# Revision: 2
# Processed by: cddbd v1.5.1PL2 Copyright (c) Steve Scherf et al.
# Submitted via: ExactAudioCopy v0.95b3
#
DISCID=e90bbc10
DTITLE=Skillet Lickers - Old-Time Fiddle Tunes and Songs from North Ge
DTITLE=orgia
DYEAR=1996
DGENRE=String Bands
TTITLE0=Rocky Pallet [1929]
TTITLE1=Rock That Cradle Lucy [1929]
TTITLE2=Soldier's Joy [1929]
TTITLE3=Sal's Gone to the Cider Mill [1930]
TTITLE4=Ride Old Buck to Water [1930]
TTITLE5=Molly Put the Kettle On [1931]
TTITLE6=Hell Broke Loose in Georgia [1929]
TTITLE7=Fly Around My Pretty Little Miss [1928]
TTITLE8=Liberty [1928]
TTITLE9=Devilish Mary [1928]
TTITLE10=Cackling Hen and Rooster Too [1930]
TTITLE11=Miss McLeod's Reel [1931]
TTITLE12=Pretty Little Widow [1928]
TTITLE13=Dixie [1927]
TTITLE14=Broken Down Gambler [1930]
TTITLE15=Leather Breeches [1930]
EXTD=Gid Tanner: fiddle, banjo, vocals\nBert Layne, Clayton McMichen, 
EXTD=Lowe Stokes: fiddles\nRiley Puckett: guitar, vocals\nFate Norris:
EXTD=banjo\nPersonnel varies among the recording sessions - not all pe
EXTD=rfomers play on all tracks.\nRecorded Atlanta US-GA, 1927-03-29/1
EXTD=931-10-24.\nCD: County Records CD-3509 (1996), UPC 009001350923.
EXTT0=
EXTT1=
EXTT2=
EXTT3=
EXTT4=
EXTT5=
EXTT6=
EXTT7=
EXTT8=
EXTT9=
EXTT10=
EXTT11=
EXTT12=
EXTT13=
EXTT14=
EXTT15=
PLAYORDER=
